<svg xmlns="http://www.w3.org/2000/svg" xmlns:xlink="http://www.w3.org/1999/xlink" width="800" zoomAndPan="magnify" viewBox="0 0 600 187.499995" height="250" preserveAspectRatio="xMidYMid meet" version="1.0"><defs><g/><clipPath id="02e360b388"><path d="M 70.652344 55.898438 L 164 55.898438 L 164 143.414062 L 70.652344 143.414062 Z M 70.652344 55.898438 " clip-rule="nonzero"/></clipPath></defs><g clip-path="url(#02e360b388)"><path fill="#22c55e" d="M 162.898438 74.945312 C 163.457031 74.945312 163.914062 74.492188 163.914062 73.929688 L 163.914062 67.664062 C 163.914062 67.101562 163.457031 66.648438 162.898438 66.648438 L 156.628906 66.648438 L 156.628906 62.457031 C 156.628906 61.894531 156.171875 61.441406 155.613281 61.441406 L 154.6875 61.441406 L 154.6875 56.929688 C 154.6875 56.367188 154.234375 55.914062 153.671875 55.914062 L 147.816406 55.914062 C 147.253906 55.914062 146.800781 56.367188 146.800781 56.929688 L 146.800781 61.441406 L 145.875 61.441406 C 145.3125 61.441406 144.859375 61.894531 144.859375 62.457031 L 144.859375 66.648438 L 141.800781 66.648438 L 141.800781 61.414062 C 141.800781 60.851562 141.34375 60.398438 140.785156 60.398438 L 93.59375 60.398438 C 93.03125 60.398438 92.578125 60.851562 92.578125 61.414062 L 92.578125 66.648438 L 89.519531 66.648438 L 89.519531 62.457031 C 89.519531 61.894531 89.0625 61.441406 88.503906 61.441406 L 87.578125 61.441406 L 87.578125 56.929688 C 87.578125 56.367188 87.125 55.914062 86.5625 55.914062 L 80.707031 55.914062 C 80.144531 55.914062 79.691406 56.367188 79.691406 56.929688 L 79.691406 61.441406 L 78.765625 61.441406 C 78.203125 61.441406 77.75 61.894531 77.75 62.457031 L 77.75 66.648438 L 71.648438 66.648438 C 71.085938 66.648438 70.632812 67.101562 70.632812 67.664062 L 70.632812 73.929688 C 70.632812 74.492188 71.085938 74.945312 71.648438 74.945312 L 73.894531 74.945312 L 73.894531 135.347656 L 71.648438 135.347656 C 71.085938 135.347656 70.632812 135.804688 70.632812 136.363281 L 70.632812 142.628906 C 70.632812 143.191406 71.085938 143.644531 71.648438 143.644531 L 162.894531 143.644531 C 163.457031 143.644531 163.910156 143.191406 163.910156 142.628906 L 163.910156 136.363281 C 163.910156 135.804688 163.457031 135.347656 162.894531 135.347656 L 160.480469 135.347656 L 160.480469 74.945312 Z M 148.832031 57.945312 L 152.65625 57.945312 L 152.65625 61.441406 L 148.832031 61.441406 Z M 146.890625 63.472656 L 154.597656 63.472656 L 154.597656 66.648438 L 146.890625 66.648438 Z M 94.609375 62.429688 L 139.769531 62.429688 L 139.769531 66.648438 L 94.609375 66.648438 Z M 81.722656 57.945312 L 85.546875 57.945312 L 85.546875 61.441406 L 81.722656 61.441406 Z M 79.78125 63.472656 L 87.488281 63.472656 L 87.488281 66.648438 L 79.78125 66.648438 Z M 72.664062 68.679688 L 161.882812 68.679688 L 161.882812 72.914062 L 72.664062 72.914062 Z M 161.882812 141.613281 L 72.664062 141.613281 L 72.664062 137.378906 L 161.882812 137.378906 Z M 158.449219 135.347656 L 75.929688 135.347656 L 75.929688 74.945312 L 158.449219 74.945312 Z M 158.449219 135.347656 " fill-opacity="1" fill-rule="nonzero"/></g><path fill="#22c55e" d="M 106.671875 112.308594 L 116.328125 112.308594 L 114.738281 126.085938 C 114.679688 126.574219 114.988281 127.039062 115.464844 127.175781 C 115.558594 127.203125 115.65625 127.214844 115.746094 127.214844 C 116.128906 127.214844 116.492188 127 116.664062 126.640625 L 126.757812 105.585938 C 126.90625 105.269531 126.886719 104.898438 126.699219 104.605469 C 126.511719 104.308594 126.191406 104.128906 125.839844 104.128906 L 116.390625 104.128906 L 119.84375 88.375 C 119.953125 87.878906 119.675781 87.378906 119.199219 87.203125 C 118.722656 87.03125 118.1875 87.234375 117.953125 87.6875 L 105.769531 110.820312 C 105.605469 111.136719 105.617188 111.515625 105.796875 111.820312 C 105.984375 112.125 106.3125 112.308594 106.667969 112.308594 Z M 116.25 95.28125 L 114.136719 104.929688 C 114.070312 105.230469 114.144531 105.542969 114.335938 105.78125 C 114.527344 106.023438 114.820312 106.160156 115.125 106.160156 L 124.226562 106.160156 L 117.453125 120.292969 L 118.476562 111.410156 C 118.511719 111.121094 118.417969 110.835938 118.226562 110.617188 C 118.035156 110.402344 117.757812 110.277344 117.46875 110.277344 L 108.351562 110.277344 Z M 116.25 95.28125 " fill-opacity="1" fill-rule="nonzero"/><path fill="#22c55e" d="M 85.546875 84.75 L 87.09375 84.75 L 87.09375 86.292969 C 87.09375 86.855469 87.546875 87.308594 88.109375 87.308594 C 88.671875 87.308594 89.125 86.855469 89.125 86.292969 L 89.125 84.75 L 90.667969 84.75 C 91.230469 84.75 91.683594 84.296875 91.683594 83.734375 C 91.683594 83.171875 91.230469 82.71875 90.667969 82.71875 L 89.125 82.71875 L 89.125 81.171875 C 89.125 80.609375 88.671875 80.15625 88.109375 80.15625 C 87.546875 80.15625 87.09375 80.609375 87.09375 81.171875 L 87.09375 82.71875 L 85.546875 82.71875 C 84.984375 82.71875 84.53125 83.171875 84.53125 83.734375 C 84.53125 84.296875 84.984375 84.75 85.546875 84.75 Z M 85.546875 84.75 " fill-opacity="1" fill-rule="nonzero"/><path fill="#22c55e" d="M 143.707031 84.75 L 148.832031 84.75 C 149.394531 84.75 149.847656 84.296875 149.847656 83.734375 C 149.847656 83.171875 149.394531 82.71875 148.832031 82.71875 L 143.707031 82.71875 C 143.144531 82.71875 142.691406 83.171875 142.691406 83.734375 C 142.691406 84.296875 143.144531 84.75 143.707031 84.75 Z M 143.707031 84.75 " fill-opacity="1" fill-rule="nonzero"/><g fill="#111827" fill-opacity="1"><g transform="translate(236.308061, 82.119426)"><g><path d="M 31.765625 -8.484375 L 13.359375 -8.484375 L 9.859375 0 L 0.453125 0 L 18.125 -39.625 L 27.171875 -39.625 L 44.890625 0 L 35.28125 0 Z M 28.875 -15.453125 L 22.59375 -30.625 L 16.3125 -15.453125 Z M 28.875 -15.453125 "/></g></g></g><g fill="#111827" fill-opacity="1"><g transform="translate(281.543114, 82.119426)"><g><path d="M 20.265625 -15.96875 L 13.921875 -15.96875 L 13.921875 0 L 4.8125 0 L 4.8125 -39.625 L 13.921875 -39.625 L 13.921875 -23.609375 L 20.5 -23.609375 L 30.90625 -39.625 L 40.59375 -39.625 L 27.625 -20.5 L 40.984375 0 L 30.5625 0 Z M 20.265625 -15.96875 "/></g></g></g><g fill="#111827" fill-opacity="1"><g transform="translate(321.909272, 82.119426)"><g><path d="M 4.921875 -39.625 L 36.90625 -39.625 L 36.90625 -32.328125 L 14.046875 -32.328125 L 14.046875 -24.171875 L 25.015625 -24.171875 C 29.804688 -24.171875 33.457031 -23.171875 35.96875 -21.171875 C 38.476562 -19.171875 39.734375 -16.285156 39.734375 -12.515625 C 39.734375 -8.546875 38.335938 -5.46875 35.546875 -3.28125 C 32.753906 -1.09375 28.8125 0 23.71875 0 L 4.921875 0 Z M 23.203125 -6.796875 C 25.546875 -6.796875 27.335938 -7.253906 28.578125 -8.171875 C 29.828125 -9.097656 30.453125 -10.453125 30.453125 -12.234375 C 30.453125 -15.703125 28.035156 -17.4375 23.203125 -17.4375 L 14.046875 -17.4375 L 14.046875 -6.796875 Z M 23.203125 -6.796875 "/></g></g></g><g fill="#111827" fill-opacity="1"><g transform="translate(173.171742, 138.219821)"><g><path d="M 32.375 -20.65625 C 34.789062 -19.945312 36.640625 -18.78125 37.921875 -17.15625 C 39.210938 -15.53125 39.859375 -13.53125 39.859375 -11.15625 C 39.859375 -7.644531 38.523438 -4.90625 35.859375 -2.9375 C 33.203125 -0.976562 29.398438 0 24.453125 0 L 4.921875 0 L 4.921875 -39.625 L 23.375 -39.625 C 27.976562 -39.625 31.5625 -38.738281 34.125 -36.96875 C 36.695312 -35.195312 37.984375 -32.664062 37.984375 -29.375 C 37.984375 -27.414062 37.492188 -25.691406 36.515625 -24.203125 C 35.535156 -22.710938 34.15625 -21.53125 32.375 -20.65625 Z M 14.046875 -23.203125 L 22.59375 -23.203125 C 24.59375 -23.203125 26.097656 -23.609375 27.109375 -24.421875 C 28.128906 -25.234375 28.640625 -26.429688 28.640625 -28.015625 C 28.640625 -29.566406 28.117188 -30.753906 27.078125 -31.578125 C 26.046875 -32.410156 24.550781 -32.828125 22.59375 -32.828125 L 14.046875 -32.828125 Z M 24.109375 -6.796875 C 28.410156 -6.796875 30.5625 -8.492188 30.5625 -11.890625 C 30.5625 -15.171875 28.410156 -16.8125 24.109375 -16.8125 L 14.046875 -16.8125 L 14.046875 -6.796875 Z M 24.109375 -6.796875 "/></g></g></g><g fill="#111827" fill-opacity="1"><g transform="translate(215.349601, 138.219821)"><g><path d="M 4.1875 -30.453125 L 13.015625 -30.453125 L 13.015625 0 L 4.1875 0 Z M 8.609375 -34.703125 C 6.984375 -34.703125 5.660156 -35.171875 4.640625 -36.109375 C 3.628906 -37.054688 3.125 -38.226562 3.125 -39.625 C 3.125 -41.019531 3.628906 -42.1875 4.640625 -43.125 C 5.660156 -44.070312 6.984375 -44.546875 8.609375 -44.546875 C 10.234375 -44.546875 11.554688 -44.09375 12.578125 -43.1875 C 13.597656 -42.28125 14.109375 -41.148438 14.109375 -39.796875 C 14.109375 -38.328125 13.597656 -37.109375 12.578125 -36.140625 C 11.554688 -35.179688 10.234375 -34.703125 8.609375 -34.703125 Z M 8.609375 -34.703125 "/></g></g></g><g fill="#111827" fill-opacity="1"><g transform="translate(232.617045, 138.219821)"><g><path d="M 4.25 -30.453125 L 13.015625 -30.453125 L 13.015625 -18.5625 L 26.265625 -18.5625 L 26.265625 -30.453125 L 35.09375 -30.453125 L 35.09375 0 L 26.265625 0 L 26.265625 -11.375 L 13.015625 -11.375 L 13.015625 0 L 4.25 0 Z M 4.25 -30.453125 "/></g></g></g><g fill="#111827" fill-opacity="1"><g transform="translate(271.907569, 138.219821)"><g><path d="M 4.25 -30.453125 L 13.015625 -30.453125 L 13.015625 -18.5625 L 26.265625 -18.5625 L 26.265625 -30.453125 L 35.09375 -30.453125 L 35.09375 0 L 26.265625 0 L 26.265625 -11.375 L 13.015625 -11.375 L 13.015625 0 L 4.25 0 Z M 4.25 -30.453125 "/></g></g></g><g fill="#111827" fill-opacity="1"><g transform="translate(311.198094, 138.219821)"><g><path d="M 4.25 -30.453125 L 13.015625 -30.453125 L 13.015625 -12.34375 L 27.859375 -30.453125 L 35.953125 -30.453125 L 35.953125 0 L 27.171875 0 L 27.171875 -18.109375 L 12.390625 0 L 4.25 0 Z M 4.25 -30.453125 "/></g></g></g><g fill="#111827" fill-opacity="1"><g transform="translate(351.394451, 138.219821)"><g><path d="M 38.546875 -7.25 L 38.546875 6.6875 L 30.34375 6.6875 L 30.34375 0 L 4.25 0 L 4.25 -30.453125 L 13.015625 -30.453125 L 13.015625 -7.25 L 25.296875 -7.25 L 25.296875 -30.453125 L 34.140625 -30.453125 L 34.140625 -7.25 Z M 38.546875 -7.25 "/></g></g></g><g fill="#111827" fill-opacity="1"><g transform="translate(391.251116, 138.219821)"><g><path d="M 31.3125 -30.453125 L 31.3125 0 L 23.4375 0 L 23.4375 -8.71875 L 16.921875 -8.71875 L 11.15625 0 L 1.75 0 L 8.71875 -9.96875 C 6.601562 -10.789062 4.988281 -11.984375 3.875 -13.546875 C 2.757812 -15.117188 2.203125 -17.019531 2.203125 -19.25 C 2.203125 -22.832031 3.492188 -25.59375 6.078125 -27.53125 C 8.671875 -29.476562 12.226562 -30.453125 16.75 -30.453125 Z M 16.921875 -23.265625 C 15.035156 -23.265625 13.609375 -22.925781 12.640625 -22.25 C 11.679688 -21.570312 11.203125 -20.476562 11.203125 -18.96875 C 11.203125 -17.457031 11.664062 -16.351562 12.59375 -15.65625 C 13.519531 -14.957031 14.925781 -14.609375 16.8125 -14.609375 L 23.4375 -14.609375 L 23.4375 -23.265625 Z M 16.921875 -23.265625 "/></g></g></g><g fill="#6b7280" fill-opacity="1"><g transform="translate(109.733936, 166.376839)"><g><path d="M 15.390625 -14.859375 L 15.390625 0 L 11.96875 0 L 11.96875 -12.046875 L 5.265625 -12.046875 L 5.265625 0 L 1.84375 0 L 1.84375 -14.859375 Z M 15.390625 -14.859375 "/></g></g></g><g fill="#6b7280" fill-opacity="1"><g transform="translate(126.958887, 166.376839)"><g><path d="M 8.328125 -11.578125 C 9.378906 -11.578125 10.34375 -11.332031 11.21875 -10.84375 C 12.09375 -10.363281 12.773438 -9.679688 13.265625 -8.796875 C 13.765625 -7.910156 14.015625 -6.878906 14.015625 -5.703125 C 14.015625 -4.535156 13.765625 -3.507812 13.265625 -2.625 C 12.773438 -1.738281 12.09375 -1.050781 11.21875 -0.5625 C 10.34375 -0.0703125 9.378906 0.171875 8.328125 0.171875 C 6.867188 0.171875 5.722656 -0.285156 4.890625 -1.203125 L 4.890625 4.109375 L 1.578125 4.109375 L 1.578125 -11.421875 L 4.734375 -11.421875 L 4.734375 -10.09375 C 5.554688 -11.082031 6.753906 -11.578125 8.328125 -11.578125 Z M 7.75 -2.546875 C 8.59375 -2.546875 9.285156 -2.832031 9.828125 -3.40625 C 10.378906 -3.976562 10.65625 -4.742188 10.65625 -5.703125 C 10.65625 -6.671875 10.378906 -7.441406 9.828125 -8.015625 C 9.285156 -8.585938 8.59375 -8.875 7.75 -8.875 C 6.894531 -8.875 6.195312 -8.585938 5.65625 -8.015625 C 5.113281 -7.441406 4.84375 -6.671875 4.84375 -5.703125 C 4.84375 -4.742188 5.113281 -3.976562 5.65625 -3.40625 C 6.195312 -2.832031 6.894531 -2.546875 7.75 -2.546875 Z M 7.75 -2.546875 "/></g></g></g><g fill="#6b7280" fill-opacity="1"><g transform="translate(141.680698, 166.376839)"><g><path d="M 6.9375 0.171875 C 5.738281 0.171875 4.660156 -0.078125 3.703125 -0.578125 C 2.753906 -1.085938 2.007812 -1.785156 1.46875 -2.671875 C 0.925781 -3.566406 0.65625 -4.578125 0.65625 -5.703125 C 0.65625 -6.835938 0.925781 -7.847656 1.46875 -8.734375 C 2.007812 -9.628906 2.753906 -10.328125 3.703125 -10.828125 C 4.660156 -11.328125 5.738281 -11.578125 6.9375 -11.578125 C 8.144531 -11.578125 9.222656 -11.328125 10.171875 -10.828125 C 11.117188 -10.328125 11.859375 -9.628906 12.390625 -8.734375 C 12.929688 -7.847656 13.203125 -6.835938 13.203125 -5.703125 C 13.203125 -4.578125 12.929688 -3.566406 12.390625 -2.671875 C 11.859375 -1.785156 11.117188 -1.085938 10.171875 -0.578125 C 9.222656 -0.078125 8.144531 0.171875 6.9375 0.171875 Z M 6.9375 -2.546875 C 7.789062 -2.546875 8.488281 -2.832031 9.03125 -3.40625 C 9.570312 -3.976562 9.84375 -4.742188 9.84375 -5.703125 C 9.84375 -6.671875 9.570312 -7.441406 9.03125 -8.015625 C 8.488281 -8.585938 7.789062 -8.875 6.9375 -8.875 C 6.09375 -8.875 5.394531 -8.585938 4.84375 -8.015625 C 4.289062 -7.441406 4.015625 -6.671875 4.015625 -5.703125 C 4.015625 -4.742188 4.289062 -3.976562 4.84375 -3.40625 C 5.394531 -2.832031 6.09375 -2.546875 6.9375 -2.546875 Z M 6.9375 -2.546875 "/></g></g></g><g fill="#6b7280" fill-opacity="1"><g transform="translate(155.384228, 166.376839)"><g><path d="M 14.390625 -2.71875 L 14.390625 2.46875 L 11.3125 2.46875 L 11.3125 0 L 3.28125 0 L 3.28125 2.46875 L 0.21875 2.46875 L 0.21875 -2.71875 L 0.671875 -2.71875 C 1.378906 -2.726562 1.867188 -3.144531 2.140625 -3.96875 C 2.410156 -4.789062 2.582031 -5.957031 2.65625 -7.46875 L 2.796875 -11.421875 L 12.75 -11.421875 L 12.75 -2.71875 Z M 5.640625 -7.234375 C 5.597656 -6.078125 5.507812 -5.128906 5.375 -4.390625 C 5.238281 -3.648438 4.988281 -3.09375 4.625 -2.71875 L 9.4375 -2.71875 L 9.4375 -8.703125 L 5.703125 -8.703125 Z M 5.640625 -7.234375 "/></g></g></g><g fill="#6b7280" fill-opacity="1"><g transform="translate(170.254531, 166.376839)"><g><path d="M 6.015625 -11.578125 C 7.785156 -11.578125 9.144531 -11.15625 10.09375 -10.3125 C 11.039062 -9.476562 11.515625 -8.210938 11.515625 -6.515625 L 11.515625 0 L 8.421875 0 L 8.421875 -1.421875 C 7.796875 -0.359375 6.632812 0.171875 4.9375 0.171875 C 4.0625 0.171875 3.300781 0.0234375 2.65625 -0.265625 C 2.007812 -0.566406 1.515625 -0.976562 1.171875 -1.5 C 0.835938 -2.03125 0.671875 -2.625 0.671875 -3.28125 C 0.671875 -4.34375 1.070312 -5.175781 1.875 -5.78125 C 2.675781 -6.394531 3.910156 -6.703125 5.578125 -6.703125 L 8.203125 -6.703125 C 8.203125 -7.421875 7.984375 -7.972656 7.546875 -8.359375 C 7.109375 -8.753906 6.453125 -8.953125 5.578125 -8.953125 C 4.972656 -8.953125 4.375 -8.851562 3.78125 -8.65625 C 3.195312 -8.46875 2.695312 -8.210938 2.28125 -7.890625 L 1.09375 -10.203125 C 1.71875 -10.640625 2.460938 -10.976562 3.328125 -11.21875 C 4.203125 -11.457031 5.097656 -11.578125 6.015625 -11.578125 Z M 5.765625 -2.0625 C 6.328125 -2.0625 6.828125 -2.191406 7.265625 -2.453125 C 7.710938 -2.710938 8.023438 -3.097656 8.203125 -3.609375 L 8.203125 -4.78125 L 5.9375 -4.78125 C 4.582031 -4.78125 3.90625 -4.332031 3.90625 -3.4375 C 3.90625 -3.007812 4.066406 -2.671875 4.390625 -2.421875 C 4.722656 -2.179688 5.179688 -2.0625 5.765625 -2.0625 Z M 5.765625 -2.0625 "/></g></g></g><g fill="#6b7280" fill-opacity="1"><g transform="translate(183.06718, 166.376839)"><g><path d="M 12.90625 -4.328125 L 11.3125 -4.328125 L 11.3125 0 L 8.046875 0 L 8.046875 -4.328125 L 6.453125 -4.328125 L 4.03125 0 L 0.125 0 L 3.71875 -5.90625 L 0.375 -11.421875 L 3.890625 -11.421875 L 6.40625 -6.984375 L 8.046875 -6.984375 L 8.046875 -11.421875 L 11.3125 -11.421875 L 11.3125 -6.984375 L 12.921875 -6.984375 L 15.46875 -11.421875 L 18.96875 -11.421875 L 15.640625 -5.90625 L 19.25 0 L 15.3125 0 Z M 12.90625 -4.328125 "/></g></g></g><g fill="#6b7280" fill-opacity="1"><g transform="translate(202.434645, 166.376839)"><g/></g></g><g fill="#6b7280" fill-opacity="1"><g transform="translate(208.437919, 166.376839)"><g><path d="M 3.203125 -3.90625 C 2.609375 -3.90625 2.113281 -4.09375 1.71875 -4.46875 C 1.332031 -4.851562 1.140625 -5.359375 1.140625 -5.984375 C 1.140625 -6.609375 1.332031 -7.109375 1.71875 -7.484375 C 2.101562 -7.859375 2.597656 -8.046875 3.203125 -8.046875 C 3.804688 -8.046875 4.300781 -7.859375 4.6875 -7.484375 C 5.070312 -7.109375 5.265625 -6.609375 5.265625 -5.984375 C 5.265625 -5.359375 5.070312 -4.851562 4.6875 -4.46875 C 4.300781 -4.09375 3.804688 -3.90625 3.203125 -3.90625 Z M 3.203125 -3.90625 "/></g></g></g><g fill="#6b7280" fill-opacity="1"><g transform="translate(214.844244, 166.376839)"><g/></g></g><g fill="#6b7280" fill-opacity="1"><g transform="translate(220.847518, 166.376839)"><g><path d="M 10.296875 -7.75 C 11.148438 -7.445312 11.820312 -6.976562 12.3125 -6.34375 C 12.800781 -5.71875 13.046875 -4.988281 13.046875 -4.15625 C 13.046875 -3.25 12.75 -2.460938 12.15625 -1.796875 C 11.5625 -1.140625 10.757812 -0.632812 9.75 -0.28125 C 8.738281 0.0703125 7.628906 0.25 6.421875 0.25 C 5.410156 0.25 4.398438 0.125 3.390625 -0.125 C 2.378906 -0.382812 1.421875 -0.773438 0.515625 -1.296875 L 1.5625 -3.75 C 2.21875 -3.351562 2.9375 -3.050781 3.71875 -2.84375 C 4.507812 -2.644531 5.28125 -2.546875 6.03125 -2.546875 C 7.039062 -2.546875 7.878906 -2.726562 8.546875 -3.09375 C 9.222656 -3.46875 9.5625 -3.984375 9.5625 -4.640625 C 9.5625 -5.191406 9.332031 -5.609375 8.875 -5.890625 C 8.414062 -6.179688 7.789062 -6.328125 7 -6.328125 L 3.375 -6.328125 L 3.375 -8.90625 L 6.75 -8.90625 C 7.4375 -8.90625 7.972656 -9.046875 8.359375 -9.328125 C 8.753906 -9.617188 8.953125 -10.007812 8.953125 -10.5 C 8.953125 -11.082031 8.671875 -11.535156 8.109375 -11.859375 C 7.554688 -12.179688 6.84375 -12.34375 5.96875 -12.34375 C 5.3125 -12.34375 4.632812 -12.253906 3.9375 -12.078125 C 3.25 -11.898438 2.59375 -11.632812 1.96875 -11.28125 L 0.9375 -13.96875 C 2.5 -14.769531 4.195312 -15.171875 6.03125 -15.171875 C 7.1875 -15.171875 8.25 -15 9.21875 -14.65625 C 10.195312 -14.320312 10.976562 -13.828125 11.5625 -13.171875 C 12.144531 -12.523438 12.4375 -11.769531 12.4375 -10.90625 C 12.4375 -10.195312 12.242188 -9.566406 11.859375 -9.015625 C 11.472656 -8.460938 10.953125 -8.039062 10.296875 -7.75 Z M 10.296875 -7.75 "/></g></g></g><g fill="#6b7280" fill-opacity="1"><g transform="translate(234.76324, 166.376839)"><g><path d="M 6.015625 -11.578125 C 7.785156 -11.578125 9.144531 -11.15625 10.09375 -10.3125 C 11.039062 -9.476562 11.515625 -8.210938 11.515625 -6.515625 L 11.515625 0 L 8.421875 0 L 8.421875 -1.421875 C 7.796875 -0.359375 6.632812 0.171875 4.9375 0.171875 C 4.0625 0.171875 3.300781 0.0234375 2.65625 -0.265625 C 2.007812 -0.566406 1.515625 -0.976562 1.171875 -1.5 C 0.835938 -2.03125 0.671875 -2.625 0.671875 -3.28125 C 0.671875 -4.34375 1.070312 -5.175781 1.875 -5.78125 C 2.675781 -6.394531 3.910156 -6.703125 5.578125 -6.703125 L 8.203125 -6.703125 C 8.203125 -7.421875 7.984375 -7.972656 7.546875 -8.359375 C 7.109375 -8.753906 6.453125 -8.953125 5.578125 -8.953125 C 4.972656 -8.953125 4.375 -8.851562 3.78125 -8.65625 C 3.195312 -8.46875 2.695312 -8.210938 2.28125 -7.890625 L 1.09375 -10.203125 C 1.71875 -10.640625 2.460938 -10.976562 3.328125 -11.21875 C 4.203125 -11.457031 5.097656 -11.578125 6.015625 -11.578125 Z M 5.765625 -2.0625 C 6.328125 -2.0625 6.828125 -2.191406 7.265625 -2.453125 C 7.710938 -2.710938 8.023438 -3.097656 8.203125 -3.609375 L 8.203125 -4.78125 L 5.9375 -4.78125 C 4.582031 -4.78125 3.90625 -4.332031 3.90625 -3.4375 C 3.90625 -3.007812 4.066406 -2.671875 4.390625 -2.421875 C 4.722656 -2.179688 5.179688 -2.0625 5.765625 -2.0625 Z M 5.765625 -2.0625 "/></g></g></g><g fill="#6b7280" fill-opacity="1"><g transform="translate(247.575888, 166.376839)"><g><path d="M 8.328125 -11.578125 C 9.378906 -11.578125 10.34375 -11.332031 11.21875 -10.84375 C 12.09375 -10.363281 12.773438 -9.679688 13.265625 -8.796875 C 13.765625 -7.910156 14.015625 -6.878906 14.015625 -5.703125 C 14.015625 -4.535156 13.765625 -3.507812 13.265625 -2.625 C 12.773438 -1.738281 12.09375 -1.050781 11.21875 -0.5625 C 10.34375 -0.0703125 9.378906 0.171875 8.328125 0.171875 C 6.867188 0.171875 5.722656 -0.285156 4.890625 -1.203125 L 4.890625 4.109375 L 1.578125 4.109375 L 1.578125 -11.421875 L 4.734375 -11.421875 L 4.734375 -10.09375 C 5.554688 -11.082031 6.753906 -11.578125 8.328125 -11.578125 Z M 7.75 -2.546875 C 8.59375 -2.546875 9.285156 -2.832031 9.828125 -3.40625 C 10.378906 -3.976562 10.65625 -4.742188 10.65625 -5.703125 C 10.65625 -6.671875 10.378906 -7.441406 9.828125 -8.015625 C 9.285156 -8.585938 8.59375 -8.875 7.75 -8.875 C 6.894531 -8.875 6.195312 -8.585938 5.65625 -8.015625 C 5.113281 -7.441406 4.84375 -6.671875 4.84375 -5.703125 C 4.84375 -4.742188 5.113281 -3.976562 5.65625 -3.40625 C 6.195312 -2.832031 6.894531 -2.546875 7.75 -2.546875 Z M 7.75 -2.546875 "/></g></g></g><g fill="#6b7280" fill-opacity="1"><g transform="translate(261.936948, 166.376839)"><g><path d="M 11.734375 -11.421875 L 11.734375 0 L 8.78125 0 L 8.78125 -3.265625 L 6.34375 -3.265625 L 4.1875 0 L 0.65625 0 L 3.265625 -3.734375 C 2.472656 -4.046875 1.867188 -4.492188 1.453125 -5.078125 C 1.035156 -5.671875 0.828125 -6.382812 0.828125 -7.21875 C 0.828125 -8.5625 1.3125 -9.597656 2.28125 -10.328125 C 3.25 -11.054688 4.582031 -11.421875 6.28125 -11.421875 Z M 6.34375 -8.71875 C 5.632812 -8.71875 5.097656 -8.585938 4.734375 -8.328125 C 4.378906 -8.078125 4.203125 -7.671875 4.203125 -7.109375 C 4.203125 -6.546875 4.375 -6.128906 4.71875 -5.859375 C 5.0625 -5.597656 5.585938 -5.46875 6.296875 -5.46875 L 8.78125 -5.46875 L 8.78125 -8.71875 Z M 6.34375 -8.71875 "/></g></g></g><g fill="#6b7280" fill-opacity="1"><g transform="translate(275.258703, 166.376839)"><g><path d="M 14.390625 -2.71875 L 14.390625 2.46875 L 11.3125 2.46875 L 11.3125 0 L 3.28125 0 L 3.28125 2.46875 L 0.21875 2.46875 L 0.21875 -2.71875 L 0.671875 -2.71875 C 1.378906 -2.726562 1.867188 -3.144531 2.140625 -3.96875 C 2.410156 -4.789062 2.582031 -5.957031 2.65625 -7.46875 L 2.796875 -11.421875 L 12.75 -11.421875 L 12.75 -2.71875 Z M 5.640625 -7.234375 C 5.597656 -6.078125 5.507812 -5.128906 5.375 -4.390625 C 5.238281 -3.648438 4.988281 -3.09375 4.625 -2.71875 L 9.4375 -2.71875 L 9.4375 -8.703125 L 5.703125 -8.703125 Z M 5.640625 -7.234375 "/></g></g></g><g fill="#6b7280" fill-opacity="1"><g transform="translate(290.129006, 166.376839)"><g><path d="M 6.625 -4.328125 L 4.90625 -4.328125 L 4.90625 0 L 1.59375 0 L 1.59375 -11.421875 L 4.90625 -11.421875 L 4.90625 -6.984375 L 6.6875 -6.984375 L 9.78125 -11.421875 L 13.296875 -11.421875 L 9.3125 -5.9375 L 13.578125 0 L 9.671875 0 Z M 6.625 -4.328125 "/></g></g></g><g fill="#6b7280" fill-opacity="1"><g transform="translate(303.535531, 166.376839)"><g><path d="M 6.015625 -11.578125 C 7.785156 -11.578125 9.144531 -11.15625 10.09375 -10.3125 C 11.039062 -9.476562 11.515625 -8.210938 11.515625 -6.515625 L 11.515625 0 L 8.421875 0 L 8.421875 -1.421875 C 7.796875 -0.359375 6.632812 0.171875 4.9375 0.171875 C 4.0625 0.171875 3.300781 0.0234375 2.65625 -0.265625 C 2.007812 -0.566406 1.515625 -0.976562 1.171875 -1.5 C 0.835938 -2.03125 0.671875 -2.625 0.671875 -3.28125 C 0.671875 -4.34375 1.070312 -5.175781 1.875 -5.78125 C 2.675781 -6.394531 3.910156 -6.703125 5.578125 -6.703125 L 8.203125 -6.703125 C 8.203125 -7.421875 7.984375 -7.972656 7.546875 -8.359375 C 7.109375 -8.753906 6.453125 -8.953125 5.578125 -8.953125 C 4.972656 -8.953125 4.375 -8.851562 3.78125 -8.65625 C 3.195312 -8.46875 2.695312 -8.210938 2.28125 -7.890625 L 1.09375 -10.203125 C 1.71875 -10.640625 2.460938 -10.976562 3.328125 -11.21875 C 4.203125 -11.457031 5.097656 -11.578125 6.015625 -11.578125 Z M 5.765625 -2.0625 C 6.328125 -2.0625 6.828125 -2.191406 7.265625 -2.453125 C 7.710938 -2.710938 8.023438 -3.097656 8.203125 -3.609375 L 8.203125 -4.78125 L 5.9375 -4.78125 C 4.582031 -4.78125 3.90625 -4.332031 3.90625 -3.4375 C 3.90625 -3.007812 4.066406 -2.671875 4.390625 -2.421875 C 4.722656 -2.179688 5.179688 -2.0625 5.765625 -2.0625 Z M 5.765625 -2.0625 "/></g></g></g><g fill="#6b7280" fill-opacity="1"><g transform="translate(316.348179, 166.376839)"><g/></g></g><g fill="#6b7280" fill-opacity="1"><g transform="translate(322.351465, 166.376839)"><g><path d="M 3.203125 -3.90625 C 2.609375 -3.90625 2.113281 -4.09375 1.71875 -4.46875 C 1.332031 -4.851562 1.140625 -5.359375 1.140625 -5.984375 C 1.140625 -6.609375 1.332031 -7.109375 1.71875 -7.484375 C 2.101562 -7.859375 2.597656 -8.046875 3.203125 -8.046875 C 3.804688 -8.046875 4.300781 -7.859375 4.6875 -7.484375 C 5.070312 -7.109375 5.265625 -6.609375 5.265625 -5.984375 C 5.265625 -5.359375 5.070312 -4.851562 4.6875 -4.46875 C 4.300781 -4.09375 3.804688 -3.90625 3.203125 -3.90625 Z M 3.203125 -3.90625 "/></g></g></g><g fill="#6b7280" fill-opacity="1"><g transform="translate(328.757789, 166.376839)"><g/></g></g><g fill="#6b7280" fill-opacity="1"><g transform="translate(334.761075, 166.376839)"><g><path d="M 12.140625 -7.75 C 13.046875 -7.476562 13.738281 -7.035156 14.21875 -6.421875 C 14.695312 -5.816406 14.9375 -5.070312 14.9375 -4.1875 C 14.9375 -2.863281 14.4375 -1.832031 13.4375 -1.09375 C 12.445312 -0.363281 11.023438 0 9.171875 0 L 1.84375 0 L 1.84375 -14.859375 L 8.765625 -14.859375 C 10.492188 -14.859375 11.835938 -14.523438 12.796875 -13.859375 C 13.753906 -13.191406 14.234375 -12.242188 14.234375 -11.015625 C 14.234375 -10.273438 14.050781 -9.625 13.6875 -9.0625 C 13.320312 -8.507812 12.804688 -8.070312 12.140625 -7.75 Z M 5.265625 -8.703125 L 8.46875 -8.703125 C 9.21875 -8.703125 9.78125 -8.851562 10.15625 -9.15625 C 10.539062 -9.457031 10.734375 -9.90625 10.734375 -10.5 C 10.734375 -11.082031 10.535156 -11.53125 10.140625 -11.84375 C 9.753906 -12.15625 9.195312 -12.3125 8.46875 -12.3125 L 5.265625 -12.3125 Z M 9.046875 -2.546875 C 10.648438 -2.546875 11.453125 -3.179688 11.453125 -4.453125 C 11.453125 -5.679688 10.648438 -6.296875 9.046875 -6.296875 L 5.265625 -6.296875 L 5.265625 -2.546875 Z M 9.046875 -2.546875 "/></g></g></g><g fill="#6b7280" fill-opacity="1"><g transform="translate(350.564741, 166.376839)"><g><path d="M 1.578125 -11.421875 L 4.890625 -11.421875 L 4.890625 0 L 1.578125 0 Z M 3.234375 -13 C 2.617188 -13 2.117188 -13.175781 1.734375 -13.53125 C 1.359375 -13.882812 1.171875 -14.328125 1.171875 -14.859375 C 1.171875 -15.378906 1.359375 -15.816406 1.734375 -16.171875 C 2.117188 -16.523438 2.617188 -16.703125 3.234375 -16.703125 C 3.835938 -16.703125 4.328125 -16.53125 4.703125 -16.1875 C 5.085938 -15.851562 5.28125 -15.429688 5.28125 -14.921875 C 5.28125 -14.367188 5.085938 -13.910156 4.703125 -13.546875 C 4.328125 -13.179688 3.835938 -13 3.234375 -13 Z M 3.234375 -13 "/></g></g></g><g fill="#6b7280" fill-opacity="1"><g transform="translate(357.034731, 166.376839)"><g><path d="M 14.390625 -2.71875 L 14.390625 2.46875 L 11.3125 2.46875 L 11.3125 0 L 3.28125 0 L 3.28125 2.46875 L 0.21875 2.46875 L 0.21875 -2.71875 L 0.671875 -2.71875 C 1.378906 -2.726562 1.867188 -3.144531 2.140625 -3.96875 C 2.410156 -4.789062 2.582031 -5.957031 2.65625 -7.46875 L 2.796875 -11.421875 L 12.75 -11.421875 L 12.75 -2.71875 Z M 5.640625 -7.234375 C 5.597656 -6.078125 5.507812 -5.128906 5.375 -4.390625 C 5.238281 -3.648438 4.988281 -3.09375 4.625 -2.71875 L 9.4375 -2.71875 L 9.4375 -8.703125 L 5.703125 -8.703125 Z M 5.640625 -7.234375 "/></g></g></g><g fill="#6b7280" fill-opacity="1"><g transform="translate(371.905034, 166.376839)"><g><path d="M 1.59375 -11.421875 L 4.875 -11.421875 L 4.875 -6.953125 L 9.84375 -6.953125 L 9.84375 -11.421875 L 13.15625 -11.421875 L 13.15625 0 L 9.84375 0 L 9.84375 -4.265625 L 4.875 -4.265625 L 4.875 0 L 1.59375 0 Z M 1.59375 -11.421875 "/></g></g></g><g fill="#6b7280" fill-opacity="1"><g transform="translate(386.626822, 166.376839)"><g><path d="M 6.9375 0.171875 C 5.738281 0.171875 4.660156 -0.078125 3.703125 -0.578125 C 2.753906 -1.085938 2.007812 -1.785156 1.46875 -2.671875 C 0.925781 -3.566406 0.65625 -4.578125 0.65625 -5.703125 C 0.65625 -6.835938 0.925781 -7.847656 1.46875 -8.734375 C 2.007812 -9.628906 2.753906 -10.328125 3.703125 -10.828125 C 4.660156 -11.328125 5.738281 -11.578125 6.9375 -11.578125 C 8.144531 -11.578125 9.222656 -11.328125 10.171875 -10.828125 C 11.117188 -10.328125 11.859375 -9.628906 12.390625 -8.734375 C 12.929688 -7.847656 13.203125 -6.835938 13.203125 -5.703125 C 13.203125 -4.578125 12.929688 -3.566406 12.390625 -2.671875 C 11.859375 -1.785156 11.117188 -1.085938 10.171875 -0.578125 C 9.222656 -0.078125 8.144531 0.171875 6.9375 0.171875 Z M 6.9375 -2.546875 C 7.789062 -2.546875 8.488281 -2.832031 9.03125 -3.40625 C 9.570312 -3.976562 9.84375 -4.742188 9.84375 -5.703125 C 9.84375 -6.671875 9.570312 -7.441406 9.03125 -8.015625 C 8.488281 -8.585938 7.789062 -8.875 6.9375 -8.875 C 6.09375 -8.875 5.394531 -8.585938 4.84375 -8.015625 C 4.289062 -7.441406 4.015625 -6.671875 4.015625 -5.703125 C 4.015625 -4.742188 4.289062 -3.976562 4.84375 -3.40625 C 5.394531 -2.832031 6.09375 -2.546875 6.9375 -2.546875 Z M 6.9375 -2.546875 "/></g></g></g><g fill="#6b7280" fill-opacity="1"><g transform="translate(400.500119, 166.376839)"><g><path d="M 10.3125 -5.96875 C 11.65625 -5.507812 12.328125 -4.601562 12.328125 -3.25 C 12.328125 -2.21875 11.9375 -1.414062 11.15625 -0.84375 C 10.382812 -0.28125 9.226562 0 7.6875 0 L 1.59375 0 L 1.59375 -11.421875 L 7.421875 -11.421875 C 8.847656 -11.421875 9.960938 -11.160156 10.765625 -10.640625 C 11.578125 -10.117188 11.984375 -9.394531 11.984375 -8.46875 C 11.984375 -7.90625 11.835938 -7.40625 11.546875 -6.96875 C 11.265625 -6.539062 10.851562 -6.207031 10.3125 -5.96875 Z M 4.625 -6.71875 L 7.125 -6.71875 C 8.289062 -6.71875 8.875 -7.128906 8.875 -7.953125 C 8.875 -8.765625 8.289062 -9.171875 7.125 -9.171875 L 4.625 -9.171875 Z M 7.40625 -2.25 C 8.625 -2.25 9.234375 -2.664062 9.234375 -3.5 C 9.234375 -3.9375 9.085938 -4.257812 8.796875 -4.46875 C 8.515625 -4.675781 8.070312 -4.78125 7.46875 -4.78125 L 4.625 -4.78125 L 4.625 -2.25 Z M 7.40625 -2.25 "/></g></g></g><g fill="#6b7280" fill-opacity="1"><g transform="translate(413.694623, 166.376839)"><g><path d="M 12.546875 -11.421875 L 12.546875 0 L 9.234375 0 L 9.234375 -8.703125 L 5.625 -8.703125 L 5.515625 -6.6875 C 5.460938 -5.1875 5.320312 -3.941406 5.09375 -2.953125 C 4.863281 -1.960938 4.492188 -1.179688 3.984375 -0.609375 C 3.472656 -0.046875 2.769531 0.234375 1.875 0.234375 C 1.382812 0.234375 0.8125 0.148438 0.15625 -0.015625 L 0.3125 -2.734375 C 0.539062 -2.703125 0.707031 -2.6875 0.8125 -2.6875 C 1.300781 -2.6875 1.671875 -2.867188 1.921875 -3.234375 C 2.171875 -3.597656 2.335938 -4.054688 2.421875 -4.609375 C 2.503906 -5.171875 2.566406 -5.910156 2.609375 -6.828125 L 2.78125 -11.421875 Z M 12.546875 -11.421875 "/></g></g></g><g fill="#6b7280" fill-opacity="1"><g transform="translate(427.822467, 166.376839)"><g><path d="M 12.6875 -5.671875 C 12.6875 -5.628906 12.664062 -5.332031 12.625 -4.78125 L 4 -4.78125 C 4.15625 -4.070312 4.519531 -3.507812 5.09375 -3.09375 C 5.675781 -2.6875 6.398438 -2.484375 7.265625 -2.484375 C 7.859375 -2.484375 8.382812 -2.570312 8.84375 -2.75 C 9.300781 -2.925781 9.726562 -3.207031 10.125 -3.59375 L 11.890625 -1.671875 C 10.816406 -0.441406 9.242188 0.171875 7.171875 0.171875 C 5.890625 0.171875 4.753906 -0.078125 3.765625 -0.578125 C 2.773438 -1.085938 2.007812 -1.785156 1.46875 -2.671875 C 0.925781 -3.566406 0.65625 -4.578125 0.65625 -5.703125 C 0.65625 -6.828125 0.921875 -7.835938 1.453125 -8.734375 C 1.984375 -9.628906 2.710938 -10.328125 3.640625 -10.828125 C 4.566406 -11.328125 5.601562 -11.578125 6.75 -11.578125 C 7.863281 -11.578125 8.875 -11.335938 9.78125 -10.859375 C 10.6875 -10.378906 11.394531 -9.691406 11.90625 -8.796875 C 12.425781 -7.898438 12.6875 -6.859375 12.6875 -5.671875 Z M 6.78125 -9.078125 C 6.03125 -9.078125 5.398438 -8.863281 4.890625 -8.4375 C 4.378906 -8.019531 4.066406 -7.441406 3.953125 -6.703125 L 9.578125 -6.703125 C 9.460938 -7.421875 9.148438 -7.992188 8.640625 -8.421875 C 8.128906 -8.859375 7.507812 -9.078125 6.78125 -9.078125 Z M 6.78125 -9.078125 "/></g></g></g><g fill="#6b7280" fill-opacity="1"><g transform="translate(441.462423, 166.376839)"><g><path d="M 1.59375 -11.421875 L 4.875 -11.421875 L 4.875 -6.953125 L 9.84375 -6.953125 L 9.84375 -11.421875 L 13.15625 -11.421875 L 13.15625 0 L 9.84375 0 L 9.84375 -4.265625 L 4.875 -4.265625 L 4.875 0 L 1.59375 0 Z M 1.59375 -11.421875 "/></g></g></g><g fill="#6b7280" fill-opacity="1"><g transform="translate(456.184235, 166.376839)"><g><path d="M 1.59375 -11.421875 L 4.875 -11.421875 L 4.875 -6.953125 L 9.84375 -6.953125 L 9.84375 -11.421875 L 13.15625 -11.421875 L 13.15625 0 L 9.84375 0 L 9.84375 -4.265625 L 4.875 -4.265625 L 4.875 0 L 1.59375 0 Z M 1.59375 -11.421875 "/></g></g></g><g fill="#6b7280" fill-opacity="1"><g transform="translate(470.906046, 166.376839)"><g><path d="M 11.734375 -11.421875 L 11.734375 0 L 8.78125 0 L 8.78125 -3.265625 L 6.34375 -3.265625 L 4.1875 0 L 0.65625 0 L 3.265625 -3.734375 C 2.472656 -4.046875 1.867188 -4.492188 1.453125 -5.078125 C 1.035156 -5.671875 0.828125 -6.382812 0.828125 -7.21875 C 0.828125 -8.5625 1.3125 -9.597656 2.28125 -10.328125 C 3.25 -11.054688 4.582031 -11.421875 6.28125 -11.421875 Z M 6.34375 -8.71875 C 5.632812 -8.71875 5.097656 -8.585938 4.734375 -8.328125 C 4.378906 -8.078125 4.203125 -7.671875 4.203125 -7.109375 C 4.203125 -6.546875 4.375 -6.128906 4.71875 -5.859375 C 5.0625 -5.597656 5.585938 -5.46875 6.296875 -5.46875 L 8.78125 -5.46875 L 8.78125 -8.71875 Z M 6.34375 -8.71875 "/></g></g></g><g fill="#6b7280" fill-opacity="1"><g transform="translate(484.239139, 166.376839)"><g/></g></g></svg>