<svg xmlns="http://www.w3.org/2000/svg" xmlns:xlink="http://www.w3.org/1999/xlink" width="800" zoomAndPan="magnify" viewBox="0 0 600 187.499995" height="250" preserveAspectRatio="xMidYMid meet" version="1.0"><defs><g/><clipPath id="9b49fc219b"><path d="M 0.796875 0 L 599.199219 0 L 599.199219 187 L 0.796875 187 Z M 0.796875 0 " clip-rule="nonzero"/></clipPath><clipPath id="845cf2c6b4"><path d="M 0.382812 1.546875 L 96.0625 1.546875 L 96.0625 91.597656 L 0.382812 91.597656 Z M 0.382812 1.546875 " clip-rule="nonzero"/></clipPath><clipPath id="b956874aba"><path d="M 137 66 L 502.078125 66 L 502.078125 92.660156 L 137 92.660156 Z M 137 66 " clip-rule="nonzero"/></clipPath><clipPath id="42b0e638dc"><rect x="0" width="366" y="0" height="27"/></clipPath><clipPath id="043a62c7f2"><rect x="0" width="503" y="0" height="93"/></clipPath></defs><g clip-path="url(#9b49fc219b)"><path fill="#ffffff" d="M 0.796875 0 L 599.203125 0 L 599.203125 187 L 0.796875 187 Z M 0.796875 0 " fill-opacity="1" fill-rule="nonzero"/><path fill="#ffffff" d="M 0.796875 0 L 599.203125 0 L 599.203125 187 L 0.796875 187 Z M 0.796875 0 " fill-opacity="1" fill-rule="nonzero"/></g><g transform="matrix(1, 0, 0, 1, 38, 50)"><g clip-path="url(#043a62c7f2)"><g clip-path="url(#845cf2c6b4)"><path fill="#22c55e" d="M 95.097656 21.101562 C 95.671875 21.101562 96.140625 20.636719 96.140625 20.058594 L 96.140625 13.625 C 96.140625 13.046875 95.671875 12.582031 95.097656 12.582031 L 88.660156 12.582031 L 88.660156 8.277344 C 88.660156 7.699219 88.195312 7.234375 87.617188 7.234375 L 86.667969 7.234375 L 86.667969 2.605469 C 86.667969 2.027344 86.199219 1.5625 85.625 1.5625 L 79.613281 1.5625 C 79.035156 1.5625 78.570312 2.027344 78.570312 2.605469 L 78.570312 7.234375 L 77.621094 7.234375 C 77.042969 7.234375 76.578125 7.699219 76.578125 8.277344 L 76.578125 12.582031 L 73.433594 12.582031 L 73.433594 7.207031 C 73.433594 6.632812 72.96875 6.164062 72.390625 6.164062 L 23.9375 6.164062 C 23.363281 6.164062 22.894531 6.632812 22.894531 7.207031 L 22.894531 12.582031 L 19.753906 12.582031 L 19.753906 8.277344 C 19.753906 7.699219 19.289062 7.234375 18.710938 7.234375 L 17.761719 7.234375 L 17.761719 2.605469 C 17.761719 2.027344 17.296875 1.5625 16.71875 1.5625 L 10.707031 1.5625 C 10.128906 1.5625 9.664062 2.027344 9.664062 2.605469 L 9.664062 7.234375 L 8.714844 7.234375 C 8.136719 7.234375 7.671875 7.699219 7.671875 8.277344 L 7.671875 12.582031 L 1.40625 12.582031 C 0.828125 12.582031 0.363281 13.046875 0.363281 13.625 L 0.363281 20.058594 C 0.363281 20.636719 0.828125 21.101562 1.40625 21.101562 L 3.714844 21.101562 L 3.714844 83.121094 L 1.40625 83.121094 C 0.828125 83.121094 0.363281 83.589844 0.363281 84.164062 L 0.363281 90.597656 C 0.363281 91.175781 0.828125 91.640625 1.40625 91.640625 L 95.097656 91.640625 C 95.671875 91.640625 96.136719 91.175781 96.136719 90.597656 L 96.136719 84.164062 C 96.136719 83.589844 95.671875 83.121094 95.097656 83.121094 L 92.617188 83.121094 L 92.617188 21.101562 Z M 80.65625 3.648438 L 84.582031 3.648438 L 84.582031 7.234375 L 80.65625 7.234375 Z M 78.664062 9.320312 L 86.574219 9.320312 L 86.574219 12.582031 L 78.664062 12.582031 Z M 24.980469 8.25 L 71.347656 8.25 L 71.347656 12.582031 L 24.980469 12.582031 Z M 11.75 3.648438 L 15.675781 3.648438 L 15.675781 7.234375 L 11.75 7.234375 Z M 9.757812 9.320312 L 17.667969 9.320312 L 17.667969 12.582031 L 9.757812 12.582031 Z M 2.449219 14.667969 L 94.054688 14.667969 L 94.054688 19.015625 L 2.449219 19.015625 Z M 94.054688 89.554688 L 2.449219 89.554688 L 2.449219 85.207031 L 94.054688 85.207031 Z M 90.53125 83.121094 L 5.800781 83.121094 L 5.800781 21.101562 L 90.53125 21.101562 Z M 90.53125 83.121094 " fill-opacity="1" fill-rule="nonzero"/></g><path fill="#22c55e" d="M 37.363281 59.464844 L 47.28125 59.464844 L 45.648438 73.609375 C 45.589844 74.113281 45.90625 74.589844 46.398438 74.730469 C 46.492188 74.757812 46.589844 74.769531 46.6875 74.769531 C 47.078125 74.769531 47.449219 74.546875 47.625 74.179688 L 57.988281 52.5625 C 58.144531 52.238281 58.121094 51.859375 57.929688 51.554688 C 57.738281 51.253906 57.40625 51.066406 57.046875 51.066406 L 47.34375 51.066406 L 50.890625 34.890625 C 51.003906 34.382812 50.722656 33.867188 50.230469 33.6875 C 49.742188 33.511719 49.191406 33.71875 48.949219 34.183594 L 36.441406 57.9375 C 36.269531 58.261719 36.28125 58.648438 36.46875 58.960938 C 36.660156 59.273438 36.996094 59.464844 37.363281 59.464844 Z M 47.203125 41.980469 L 45.03125 51.886719 C 44.960938 52.195312 45.039062 52.515625 45.234375 52.765625 C 45.433594 53.007812 45.734375 53.152344 46.046875 53.152344 L 55.390625 53.152344 L 48.433594 67.664062 L 49.488281 58.542969 C 49.523438 58.246094 49.429688 57.953125 49.230469 57.730469 C 49.035156 57.507812 48.75 57.378906 48.453125 57.378906 L 39.09375 57.378906 L 47.199219 41.980469 Z M 47.203125 41.980469 " fill-opacity="1" fill-rule="nonzero"/><path fill="#22c55e" d="M 15.675781 31.167969 L 17.265625 31.167969 L 17.265625 32.753906 C 17.265625 33.332031 17.730469 33.796875 18.308594 33.796875 C 18.882812 33.796875 19.351562 33.332031 19.351562 32.753906 L 19.351562 31.167969 L 20.9375 31.167969 C 21.511719 31.167969 21.980469 30.703125 21.980469 30.125 C 21.980469 29.546875 21.511719 29.082031 20.9375 29.082031 L 19.351562 29.082031 L 19.351562 27.496094 C 19.351562 26.917969 18.882812 26.453125 18.308594 26.453125 C 17.730469 26.453125 17.265625 26.917969 17.265625 27.496094 L 17.265625 29.082031 L 15.675781 29.082031 C 15.101562 29.082031 14.632812 29.546875 14.632812 30.125 C 14.632812 30.703125 15.101562 31.167969 15.675781 31.167969 Z M 15.675781 31.167969 " fill-opacity="1" fill-rule="nonzero"/><path fill="#22c55e" d="M 75.394531 31.167969 L 80.65625 31.167969 C 81.230469 31.167969 81.699219 30.703125 81.699219 30.125 C 81.699219 29.546875 81.230469 29.082031 80.65625 29.082031 L 75.394531 29.082031 C 74.816406 29.082031 74.351562 29.546875 74.351562 30.125 C 74.351562 30.703125 74.816406 31.167969 75.394531 31.167969 Z M 75.394531 31.167969 " fill-opacity="1" fill-rule="nonzero"/><g fill="#111827" fill-opacity="1"><g transform="translate(164.903098, 50.079939)"><g><path d="M 22.25 -5.953125 L 9.359375 -5.953125 L 6.890625 0 L 0.3125 0 L 12.6875 -27.765625 L 19.03125 -27.765625 L 31.4375 0 L 24.703125 0 Z M 20.21875 -10.828125 L 15.828125 -21.453125 L 11.421875 -10.828125 Z M 20.21875 -10.828125 "/></g></g></g><g fill="#111827" fill-opacity="1"><g transform="translate(199.742651, 50.079939)"><g><path d="M 14.203125 -11.1875 L 9.75 -11.1875 L 9.75 0 L 3.375 0 L 3.375 -27.765625 L 9.75 -27.765625 L 9.75 -16.53125 L 14.359375 -16.53125 L 21.65625 -27.765625 L 28.4375 -27.765625 L 19.359375 -14.359375 L 28.71875 0 L 21.421875 0 Z M 14.203125 -11.1875 "/></g></g></g><g fill="#111827" fill-opacity="1"><g transform="translate(231.173188, 50.079939)"><g><path d="M 3.453125 -27.765625 L 25.859375 -27.765625 L 25.859375 -22.640625 L 9.828125 -22.640625 L 9.828125 -16.9375 L 17.53125 -16.9375 C 20.882812 -16.9375 23.441406 -16.234375 25.203125 -14.828125 C 26.960938 -13.429688 27.84375 -11.410156 27.84375 -8.765625 C 27.84375 -5.984375 26.863281 -3.828125 24.90625 -2.296875 C 22.945312 -0.765625 20.179688 0 16.609375 0 L 3.453125 0 Z M 16.265625 -4.765625 C 17.898438 -4.765625 19.148438 -5.085938 20.015625 -5.734375 C 20.890625 -6.378906 21.328125 -7.320312 21.328125 -8.5625 C 21.328125 -11 19.640625 -12.21875 16.265625 -12.21875 L 9.828125 -12.21875 L 9.828125 -4.765625 Z M 16.265625 -4.765625 "/></g></g></g><g fill="#111827" fill-opacity="1"><g transform="translate(263.595136, 50.079939)"><g/></g></g><g fill="#111827" fill-opacity="1"><g transform="translate(277.984202, 50.079939)"><g><path d="M 22.6875 -14.46875 C 24.375 -13.96875 25.664062 -13.148438 26.5625 -12.015625 C 27.46875 -10.878906 27.921875 -9.476562 27.921875 -7.8125 C 27.921875 -5.351562 26.988281 -3.4375 25.125 -2.0625 C 23.257812 -0.6875 20.59375 0 17.125 0 L 3.453125 0 L 3.453125 -27.765625 L 16.375 -27.765625 C 19.601562 -27.765625 22.113281 -27.140625 23.90625 -25.890625 C 25.707031 -24.648438 26.609375 -22.878906 26.609375 -20.578125 C 26.609375 -19.203125 26.265625 -17.992188 25.578125 -16.953125 C 24.890625 -15.910156 23.925781 -15.082031 22.6875 -14.46875 Z M 9.828125 -16.265625 L 15.828125 -16.265625 C 17.222656 -16.265625 18.273438 -16.546875 18.984375 -17.109375 C 19.703125 -17.679688 20.0625 -18.519531 20.0625 -19.625 C 20.0625 -20.707031 19.695312 -21.539062 18.96875 -22.125 C 18.25 -22.707031 17.203125 -23 15.828125 -23 L 9.828125 -23 Z M 16.890625 -4.765625 C 19.910156 -4.765625 21.421875 -5.953125 21.421875 -8.328125 C 21.421875 -10.628906 19.910156 -11.78125 16.890625 -11.78125 L 9.828125 -11.78125 L 9.828125 -4.765625 Z M 16.890625 -4.765625 "/></g></g></g><g fill="#111827" fill-opacity="1"><g transform="translate(310.683602, 50.079939)"><g><path d="M 2.9375 -21.328125 L 9.125 -21.328125 L 9.125 0 L 2.9375 0 Z M 6.03125 -24.3125 C 4.882812 -24.3125 3.953125 -24.640625 3.234375 -25.296875 C 2.523438 -25.960938 2.171875 -26.785156 2.171875 -27.765625 C 2.171875 -28.742188 2.523438 -29.5625 3.234375 -30.21875 C 3.953125 -30.875 4.882812 -31.203125 6.03125 -31.203125 C 7.164062 -31.203125 8.085938 -30.882812 8.796875 -30.25 C 9.515625 -29.625 9.875 -28.832031 9.875 -27.875 C 9.875 -26.84375 9.515625 -25.988281 8.796875 -25.3125 C 8.085938 -24.644531 7.164062 -24.3125 6.03125 -24.3125 Z M 6.03125 -24.3125 "/></g></g></g><g fill="#111827" fill-opacity="1"><g transform="translate(325.944588, 50.079939)"><g><path d="M 2.96875 -21.328125 L 9.125 -21.328125 L 9.125 -13 L 18.40625 -13 L 18.40625 -21.328125 L 24.59375 -21.328125 L 24.59375 0 L 18.40625 0 L 18.40625 -7.96875 L 9.125 -7.96875 L 9.125 0 L 2.96875 0 Z M 2.96875 -21.328125 "/></g></g></g><g fill="#111827" fill-opacity="1"><g transform="translate(356.622694, 50.079939)"><g><path d="M 2.96875 -21.328125 L 9.125 -21.328125 L 9.125 -13 L 18.40625 -13 L 18.40625 -21.328125 L 24.59375 -21.328125 L 24.59375 0 L 18.40625 0 L 18.40625 -7.96875 L 9.125 -7.96875 L 9.125 0 L 2.96875 0 Z M 2.96875 -21.328125 "/></g></g></g><g fill="#111827" fill-opacity="1"><g transform="translate(387.3008, 50.079939)"><g><path d="M 2.96875 -21.328125 L 9.125 -21.328125 L 9.125 -8.640625 L 19.515625 -21.328125 L 25.1875 -21.328125 L 25.1875 0 L 19.03125 0 L 19.03125 -12.6875 L 8.6875 0 L 2.96875 0 Z M 2.96875 -21.328125 "/></g></g></g><g fill="#111827" fill-opacity="1"><g transform="translate(418.61305, 50.079939)"><g><path d="M 27 -5.078125 L 27 4.671875 L 21.25 4.671875 L 21.25 0 L 2.96875 0 L 2.96875 -21.328125 L 9.125 -21.328125 L 9.125 -5.078125 L 17.71875 -5.078125 L 17.71875 -21.328125 L 23.90625 -21.328125 L 23.90625 -5.078125 Z M 27 -5.078125 "/></g></g></g><g fill="#111827" fill-opacity="1"><g transform="translate(449.687496, 50.079939)"><g><path d="M 21.9375 -21.328125 L 21.9375 0 L 16.421875 0 L 16.421875 -6.109375 L 11.859375 -6.109375 L 7.8125 0 L 1.234375 0 L 6.109375 -6.984375 C 4.628906 -7.566406 3.5 -8.40625 2.71875 -9.5 C 1.9375 -10.59375 1.546875 -11.921875 1.546875 -13.484375 C 1.546875 -15.992188 2.453125 -17.925781 4.265625 -19.28125 C 6.078125 -20.644531 8.566406 -21.328125 11.734375 -21.328125 Z M 11.859375 -16.296875 C 10.535156 -16.296875 9.535156 -16.054688 8.859375 -15.578125 C 8.191406 -15.109375 7.859375 -14.34375 7.859375 -13.28125 C 7.859375 -12.226562 8.179688 -11.457031 8.828125 -10.96875 C 9.472656 -10.476562 10.457031 -10.234375 11.78125 -10.234375 L 16.421875 -10.234375 L 16.421875 -16.296875 Z M 11.859375 -16.296875 "/></g></g></g><g clip-path="url(#b956874aba)"><g transform="matrix(1, 0, 0, 1, 137, 66)"><g clip-path="url(#42b0e638dc)"><g fill="#6b7280" fill-opacity="1"><g transform="translate(1.288197, 19.26533)"><g><path d="M 14.671875 -14.15625 L 14.671875 0 L 11.40625 0 L 11.40625 -11.5 L 5.015625 -11.5 L 5.015625 0 L 1.765625 0 L 1.765625 -14.15625 Z M 14.671875 -14.15625 "/></g></g></g><g fill="#6b7280" fill-opacity="1"><g transform="translate(17.715761, 19.26533)"><g><path d="M 7.9375 -11.046875 C 8.945312 -11.046875 9.863281 -10.8125 10.6875 -10.34375 C 11.519531 -9.882812 12.171875 -9.234375 12.640625 -8.390625 C 13.117188 -7.546875 13.359375 -6.5625 13.359375 -5.4375 C 13.359375 -4.320312 13.117188 -3.34375 12.640625 -2.5 C 12.171875 -1.65625 11.519531 -1 10.6875 -0.53125 C 9.863281 -0.0703125 8.945312 0.15625 7.9375 0.15625 C 6.550781 0.15625 5.457031 -0.28125 4.65625 -1.15625 L 4.65625 3.921875 L 1.5 3.921875 L 1.5 -10.890625 L 4.515625 -10.890625 L 4.515625 -9.625 C 5.296875 -10.570312 6.4375 -11.046875 7.9375 -11.046875 Z M 7.390625 -2.421875 C 8.203125 -2.421875 8.863281 -2.691406 9.375 -3.234375 C 9.894531 -3.785156 10.15625 -4.519531 10.15625 -5.4375 C 10.15625 -6.351562 9.894531 -7.082031 9.375 -7.625 C 8.863281 -8.175781 8.203125 -8.453125 7.390625 -8.453125 C 6.578125 -8.453125 5.910156 -8.175781 5.390625 -7.625 C 4.878906 -7.082031 4.625 -6.351562 4.625 -5.4375 C 4.625 -4.519531 4.878906 -3.785156 5.390625 -3.234375 C 5.910156 -2.691406 6.578125 -2.421875 7.390625 -2.421875 Z M 7.390625 -2.421875 "/></g></g></g><g fill="#6b7280" fill-opacity="1"><g transform="translate(31.756084, 19.26533)"><g><path d="M 6.625 0.15625 C 5.476562 0.15625 4.445312 -0.0820312 3.53125 -0.5625 C 2.625 -1.039062 1.910156 -1.703125 1.390625 -2.546875 C 0.878906 -3.398438 0.625 -4.363281 0.625 -5.4375 C 0.625 -6.519531 0.878906 -7.484375 1.390625 -8.328125 C 1.910156 -9.179688 2.625 -9.847656 3.53125 -10.328125 C 4.445312 -10.804688 5.476562 -11.046875 6.625 -11.046875 C 7.769531 -11.046875 8.789062 -10.804688 9.6875 -10.328125 C 10.59375 -9.847656 11.300781 -9.179688 11.8125 -8.328125 C 12.332031 -7.484375 12.59375 -6.519531 12.59375 -5.4375 C 12.59375 -4.363281 12.332031 -3.398438 11.8125 -2.546875 C 11.300781 -1.703125 10.59375 -1.039062 9.6875 -0.5625 C 8.789062 -0.0820312 7.769531 0.15625 6.625 0.15625 Z M 6.625 -2.421875 C 7.425781 -2.421875 8.085938 -2.691406 8.609375 -3.234375 C 9.128906 -3.785156 9.390625 -4.519531 9.390625 -5.4375 C 9.390625 -6.351562 9.128906 -7.082031 8.609375 -7.625 C 8.085938 -8.175781 7.425781 -8.453125 6.625 -8.453125 C 5.8125 -8.453125 5.140625 -8.175781 4.609375 -7.625 C 4.085938 -7.082031 3.828125 -6.351562 3.828125 -5.4375 C 3.828125 -4.519531 4.085938 -3.785156 4.609375 -3.234375 C 5.140625 -2.691406 5.8125 -2.421875 6.625 -2.421875 Z M 6.625 -2.421875 "/></g></g></g><g fill="#6b7280" fill-opacity="1"><g transform="translate(44.825319, 19.26533)"><g><path d="M 13.71875 -2.59375 L 13.71875 2.34375 L 10.78125 2.34375 L 10.78125 0 L 3.140625 0 L 3.140625 2.34375 L 0.203125 2.34375 L 0.203125 -2.59375 L 0.640625 -2.59375 C 1.316406 -2.601562 1.78125 -3 2.03125 -3.78125 C 2.289062 -4.5625 2.457031 -5.675781 2.53125 -7.125 L 2.671875 -10.890625 L 12.15625 -10.890625 L 12.15625 -2.59375 Z M 5.375 -6.90625 C 5.34375 -5.789062 5.257812 -4.882812 5.125 -4.1875 C 5 -3.488281 4.757812 -2.957031 4.40625 -2.59375 L 9 -2.59375 L 9 -8.296875 L 5.4375 -8.296875 Z M 5.375 -6.90625 "/></g></g></g><g fill="#6b7280" fill-opacity="1"><g transform="translate(59.007257, 19.26533)"><g><path d="M 5.75 -11.046875 C 7.4375 -11.046875 8.734375 -10.644531 9.640625 -9.84375 C 10.546875 -9.039062 11 -7.832031 11 -6.21875 L 11 0 L 8.046875 0 L 8.046875 -1.359375 C 7.453125 -0.347656 6.34375 0.15625 4.71875 0.15625 C 3.882812 0.15625 3.160156 0.015625 2.546875 -0.265625 C 1.929688 -0.546875 1.460938 -0.9375 1.140625 -1.4375 C 0.816406 -1.9375 0.65625 -2.503906 0.65625 -3.140625 C 0.65625 -4.148438 1.035156 -4.941406 1.796875 -5.515625 C 2.554688 -6.097656 3.734375 -6.390625 5.328125 -6.390625 L 7.84375 -6.390625 C 7.84375 -7.078125 7.628906 -7.601562 7.203125 -7.96875 C 6.785156 -8.34375 6.160156 -8.53125 5.328125 -8.53125 C 4.742188 -8.53125 4.171875 -8.441406 3.609375 -8.265625 C 3.054688 -8.085938 2.582031 -7.84375 2.1875 -7.53125 L 1.0625 -9.734375 C 1.65625 -10.148438 2.363281 -10.472656 3.1875 -10.703125 C 4.019531 -10.929688 4.875 -11.046875 5.75 -11.046875 Z M 5.515625 -1.96875 C 6.054688 -1.96875 6.535156 -2.09375 6.953125 -2.34375 C 7.367188 -2.59375 7.664062 -2.957031 7.84375 -3.4375 L 7.84375 -4.546875 L 5.671875 -4.546875 C 4.378906 -4.546875 3.734375 -4.125 3.734375 -3.28125 C 3.734375 -2.875 3.890625 -2.550781 4.203125 -2.3125 C 4.523438 -2.082031 4.960938 -1.96875 5.515625 -1.96875 Z M 5.515625 -1.96875 "/></g></g></g><g fill="#6b7280" fill-opacity="1"><g transform="translate(71.226773, 19.26533)"><g><path d="M 12.296875 -4.125 L 10.78125 -4.125 L 10.78125 0 L 7.671875 0 L 7.671875 -4.125 L 6.15625 -4.125 L 3.84375 0 L 0.125 0 L 3.546875 -5.625 L 0.359375 -10.890625 L 3.703125 -10.890625 L 6.109375 -6.65625 L 7.671875 -6.65625 L 7.671875 -10.890625 L 10.78125 -10.890625 L 10.78125 -6.65625 L 12.328125 -6.65625 L 14.75 -10.890625 L 18.09375 -10.890625 L 14.90625 -5.625 L 18.359375 0 L 14.609375 0 Z M 12.296875 -4.125 "/></g></g></g><g fill="#6b7280" fill-opacity="1"><g transform="translate(89.697664, 19.26533)"><g/></g></g><g fill="#6b7280" fill-opacity="1"><g transform="translate(95.423041, 19.26533)"><g><path d="M 3.0625 -3.71875 C 2.488281 -3.71875 2.015625 -3.898438 1.640625 -4.265625 C 1.273438 -4.628906 1.09375 -5.109375 1.09375 -5.703125 C 1.09375 -6.296875 1.273438 -6.769531 1.640625 -7.125 C 2.003906 -7.488281 2.476562 -7.671875 3.0625 -7.671875 C 3.632812 -7.671875 4.101562 -7.488281 4.46875 -7.125 C 4.832031 -6.769531 5.015625 -6.296875 5.015625 -5.703125 C 5.015625 -5.109375 4.832031 -4.628906 4.46875 -4.265625 C 4.101562 -3.898438 3.632812 -3.71875 3.0625 -3.71875 Z M 3.0625 -3.71875 "/></g></g></g><g fill="#6b7280" fill-opacity="1"><g transform="translate(101.532799, 19.26533)"><g/></g></g><g fill="#6b7280" fill-opacity="1"><g transform="translate(107.258177, 19.26533)"><g><path d="M 9.8125 -7.390625 C 10.632812 -7.097656 11.273438 -6.648438 11.734375 -6.046875 C 12.203125 -5.453125 12.4375 -4.757812 12.4375 -3.96875 C 12.4375 -3.101562 12.15625 -2.351562 11.59375 -1.71875 C 11.03125 -1.082031 10.265625 -0.59375 9.296875 -0.25 C 8.328125 0.0820312 7.269531 0.25 6.125 0.25 C 5.15625 0.25 4.1875 0.128906 3.21875 -0.109375 C 2.257812 -0.359375 1.347656 -0.734375 0.484375 -1.234375 L 1.5 -3.578125 C 2.113281 -3.203125 2.796875 -2.914062 3.546875 -2.71875 C 4.296875 -2.519531 5.03125 -2.421875 5.75 -2.421875 C 6.71875 -2.421875 7.519531 -2.597656 8.15625 -2.953125 C 8.800781 -3.304688 9.125 -3.800781 9.125 -4.4375 C 9.125 -4.957031 8.90625 -5.351562 8.46875 -5.625 C 8.03125 -5.894531 7.429688 -6.03125 6.671875 -6.03125 L 3.21875 -6.03125 L 3.21875 -8.5 L 6.4375 -8.5 C 7.09375 -8.5 7.601562 -8.632812 7.96875 -8.90625 C 8.34375 -9.175781 8.53125 -9.546875 8.53125 -10.015625 C 8.53125 -10.566406 8.265625 -11 7.734375 -11.3125 C 7.203125 -11.625 6.519531 -11.78125 5.6875 -11.78125 C 5.0625 -11.78125 4.414062 -11.691406 3.75 -11.515625 C 3.09375 -11.347656 2.46875 -11.097656 1.875 -10.765625 L 0.890625 -13.3125 C 2.390625 -14.082031 4.007812 -14.46875 5.75 -14.46875 C 6.851562 -14.46875 7.867188 -14.304688 8.796875 -13.984375 C 9.734375 -13.660156 10.476562 -13.1875 11.03125 -12.5625 C 11.582031 -11.945312 11.859375 -11.226562 11.859375 -10.40625 C 11.859375 -9.726562 11.675781 -9.125 11.3125 -8.59375 C 10.945312 -8.070312 10.445312 -7.671875 9.8125 -7.390625 Z M 9.8125 -7.390625 "/></g></g></g><g fill="#6b7280" fill-opacity="1"><g transform="translate(120.529712, 19.26533)"><g><path d="M 5.75 -11.046875 C 7.4375 -11.046875 8.734375 -10.644531 9.640625 -9.84375 C 10.546875 -9.039062 11 -7.832031 11 -6.21875 L 11 0 L 8.046875 0 L 8.046875 -1.359375 C 7.453125 -0.347656 6.34375 0.15625 4.71875 0.15625 C 3.882812 0.15625 3.160156 0.015625 2.546875 -0.265625 C 1.929688 -0.546875 1.460938 -0.9375 1.140625 -1.4375 C 0.816406 -1.9375 0.65625 -2.503906 0.65625 -3.140625 C 0.65625 -4.148438 1.035156 -4.941406 1.796875 -5.515625 C 2.554688 -6.097656 3.734375 -6.390625 5.328125 -6.390625 L 7.84375 -6.390625 C 7.84375 -7.078125 7.628906 -7.601562 7.203125 -7.96875 C 6.785156 -8.34375 6.160156 -8.53125 5.328125 -8.53125 C 4.742188 -8.53125 4.171875 -8.441406 3.609375 -8.265625 C 3.054688 -8.085938 2.582031 -7.84375 2.1875 -7.53125 L 1.0625 -9.734375 C 1.65625 -10.148438 2.363281 -10.472656 3.1875 -10.703125 C 4.019531 -10.929688 4.875 -11.046875 5.75 -11.046875 Z M 5.515625 -1.96875 C 6.054688 -1.96875 6.535156 -2.09375 6.953125 -2.34375 C 7.367188 -2.59375 7.664062 -2.957031 7.84375 -3.4375 L 7.84375 -4.546875 L 5.671875 -4.546875 C 4.378906 -4.546875 3.734375 -4.125 3.734375 -3.28125 C 3.734375 -2.875 3.890625 -2.550781 4.203125 -2.3125 C 4.523438 -2.082031 4.960938 -1.96875 5.515625 -1.96875 Z M 5.515625 -1.96875 "/></g></g></g><g fill="#6b7280" fill-opacity="1"><g transform="translate(132.749229, 19.26533)"><g><path d="M 7.9375 -11.046875 C 8.945312 -11.046875 9.863281 -10.8125 10.6875 -10.34375 C 11.519531 -9.882812 12.171875 -9.234375 12.640625 -8.390625 C 13.117188 -7.546875 13.359375 -6.5625 13.359375 -5.4375 C 13.359375 -4.320312 13.117188 -3.34375 12.640625 -2.5 C 12.171875 -1.65625 11.519531 -1 10.6875 -0.53125 C 9.863281 -0.0703125 8.945312 0.15625 7.9375 0.15625 C 6.550781 0.15625 5.457031 -0.28125 4.65625 -1.15625 L 4.65625 3.921875 L 1.5 3.921875 L 1.5 -10.890625 L 4.515625 -10.890625 L 4.515625 -9.625 C 5.296875 -10.570312 6.4375 -11.046875 7.9375 -11.046875 Z M 7.390625 -2.421875 C 8.203125 -2.421875 8.863281 -2.691406 9.375 -3.234375 C 9.894531 -3.785156 10.15625 -4.519531 10.15625 -5.4375 C 10.15625 -6.351562 9.894531 -7.082031 9.375 -7.625 C 8.863281 -8.175781 8.203125 -8.453125 7.390625 -8.453125 C 6.578125 -8.453125 5.910156 -8.175781 5.390625 -7.625 C 4.878906 -7.082031 4.625 -6.351562 4.625 -5.4375 C 4.625 -4.519531 4.878906 -3.785156 5.390625 -3.234375 C 5.910156 -2.691406 6.578125 -2.421875 7.390625 -2.421875 Z M 7.390625 -2.421875 "/></g></g></g><g fill="#6b7280" fill-opacity="1"><g transform="translate(146.445635, 19.26533)"><g><path d="M 11.1875 -10.890625 L 11.1875 0 L 8.375 0 L 8.375 -3.109375 L 6.046875 -3.109375 L 3.984375 0 L 0.625 0 L 3.109375 -3.5625 C 2.359375 -3.851562 1.785156 -4.28125 1.390625 -4.84375 C 0.992188 -5.40625 0.796875 -6.082031 0.796875 -6.875 C 0.796875 -8.15625 1.253906 -9.144531 2.171875 -9.84375 C 3.097656 -10.539062 4.367188 -10.890625 5.984375 -10.890625 Z M 6.046875 -8.3125 C 5.367188 -8.3125 4.859375 -8.191406 4.515625 -7.953125 C 4.171875 -7.710938 4 -7.320312 4 -6.78125 C 4 -6.238281 4.164062 -5.84375 4.5 -5.59375 C 4.832031 -5.34375 5.335938 -5.21875 6.015625 -5.21875 L 8.375 -5.21875 L 8.375 -8.3125 Z M 6.046875 -8.3125 "/></g></g></g><g fill="#6b7280" fill-opacity="1"><g transform="translate(159.150709, 19.26533)"><g><path d="M 13.71875 -2.59375 L 13.71875 2.34375 L 10.78125 2.34375 L 10.78125 0 L 3.140625 0 L 3.140625 2.34375 L 0.203125 2.34375 L 0.203125 -2.59375 L 0.640625 -2.59375 C 1.316406 -2.601562 1.78125 -3 2.03125 -3.78125 C 2.289062 -4.5625 2.457031 -5.675781 2.53125 -7.125 L 2.671875 -10.890625 L 12.15625 -10.890625 L 12.15625 -2.59375 Z M 5.375 -6.90625 C 5.34375 -5.789062 5.257812 -4.882812 5.125 -4.1875 C 5 -3.488281 4.757812 -2.957031 4.40625 -2.59375 L 9 -2.59375 L 9 -8.296875 L 5.4375 -8.296875 Z M 5.375 -6.90625 "/></g></g></g><g fill="#6b7280" fill-opacity="1"><g transform="translate(173.332647, 19.26533)"><g><path d="M 6.3125 -4.125 L 4.671875 -4.125 L 4.671875 0 L 1.515625 0 L 1.515625 -10.890625 L 4.671875 -10.890625 L 4.671875 -6.65625 L 6.375 -6.65625 L 9.328125 -10.890625 L 12.6875 -10.890625 L 8.890625 -5.671875 L 12.953125 0 L 9.234375 0 Z M 6.3125 -4.125 "/></g></g></g><g fill="#6b7280" fill-opacity="1"><g transform="translate(186.118651, 19.26533)"><g><path d="M 5.75 -11.046875 C 7.4375 -11.046875 8.734375 -10.644531 9.640625 -9.84375 C 10.546875 -9.039062 11 -7.832031 11 -6.21875 L 11 0 L 8.046875 0 L 8.046875 -1.359375 C 7.453125 -0.347656 6.34375 0.15625 4.71875 0.15625 C 3.882812 0.15625 3.160156 0.015625 2.546875 -0.265625 C 1.929688 -0.546875 1.460938 -0.9375 1.140625 -1.4375 C 0.816406 -1.9375 0.65625 -2.503906 0.65625 -3.140625 C 0.65625 -4.148438 1.035156 -4.941406 1.796875 -5.515625 C 2.554688 -6.097656 3.734375 -6.390625 5.328125 -6.390625 L 7.84375 -6.390625 C 7.84375 -7.078125 7.628906 -7.601562 7.203125 -7.96875 C 6.785156 -8.34375 6.160156 -8.53125 5.328125 -8.53125 C 4.742188 -8.53125 4.171875 -8.441406 3.609375 -8.265625 C 3.054688 -8.085938 2.582031 -7.84375 2.1875 -7.53125 L 1.0625 -9.734375 C 1.65625 -10.148438 2.363281 -10.472656 3.1875 -10.703125 C 4.019531 -10.929688 4.875 -11.046875 5.75 -11.046875 Z M 5.515625 -1.96875 C 6.054688 -1.96875 6.535156 -2.09375 6.953125 -2.34375 C 7.367188 -2.59375 7.664062 -2.957031 7.84375 -3.4375 L 7.84375 -4.546875 L 5.671875 -4.546875 C 4.378906 -4.546875 3.734375 -4.125 3.734375 -3.28125 C 3.734375 -2.875 3.890625 -2.550781 4.203125 -2.3125 C 4.523438 -2.082031 4.960938 -1.96875 5.515625 -1.96875 Z M 5.515625 -1.96875 "/></g></g></g><g fill="#6b7280" fill-opacity="1"><g transform="translate(198.338168, 19.26533)"><g/></g></g><g fill="#6b7280" fill-opacity="1"><g transform="translate(204.063545, 19.26533)"><g><path d="M 3.0625 -3.71875 C 2.488281 -3.71875 2.015625 -3.898438 1.640625 -4.265625 C 1.273438 -4.628906 1.09375 -5.109375 1.09375 -5.703125 C 1.09375 -6.296875 1.273438 -6.769531 1.640625 -7.125 C 2.003906 -7.488281 2.476562 -7.671875 3.0625 -7.671875 C 3.632812 -7.671875 4.101562 -7.488281 4.46875 -7.125 C 4.832031 -6.769531 5.015625 -6.296875 5.015625 -5.703125 C 5.015625 -5.109375 4.832031 -4.628906 4.46875 -4.265625 C 4.101562 -3.898438 3.632812 -3.71875 3.0625 -3.71875 Z M 3.0625 -3.71875 "/></g></g></g><g fill="#6b7280" fill-opacity="1"><g transform="translate(210.173303, 19.26533)"><g/></g></g><g fill="#6b7280" fill-opacity="1"><g transform="translate(215.898681, 19.26533)"><g><path d="M 11.578125 -7.390625 C 12.441406 -7.128906 13.101562 -6.707031 13.5625 -6.125 C 14.019531 -5.550781 14.25 -4.835938 14.25 -3.984375 C 14.25 -2.734375 13.769531 -1.753906 12.8125 -1.046875 C 11.863281 -0.347656 10.503906 0 8.734375 0 L 1.765625 0 L 1.765625 -14.15625 L 8.359375 -14.15625 C 10.003906 -14.15625 11.285156 -13.835938 12.203125 -13.203125 C 13.117188 -12.578125 13.578125 -11.675781 13.578125 -10.5 C 13.578125 -9.800781 13.398438 -9.179688 13.046875 -8.640625 C 12.703125 -8.109375 12.210938 -7.691406 11.578125 -7.390625 Z M 5.015625 -8.296875 L 8.078125 -8.296875 C 8.785156 -8.296875 9.320312 -8.441406 9.6875 -8.734375 C 10.050781 -9.023438 10.234375 -9.453125 10.234375 -10.015625 C 10.234375 -10.566406 10.046875 -10.988281 9.671875 -11.28125 C 9.304688 -11.582031 8.773438 -11.734375 8.078125 -11.734375 L 5.015625 -11.734375 Z M 8.625 -2.421875 C 10.15625 -2.421875 10.921875 -3.03125 10.921875 -4.25 C 10.921875 -5.425781 10.15625 -6.015625 8.625 -6.015625 L 5.015625 -6.015625 L 5.015625 -2.421875 Z M 8.625 -2.421875 "/></g></g></g><g fill="#6b7280" fill-opacity="1"><g transform="translate(230.970776, 19.26533)"><g><path d="M 1.5 -10.890625 L 4.65625 -10.890625 L 4.65625 0 L 1.5 0 Z M 3.078125 -12.40625 C 2.492188 -12.40625 2.019531 -12.570312 1.65625 -12.90625 C 1.289062 -13.25 1.109375 -13.664062 1.109375 -14.15625 C 1.109375 -14.65625 1.289062 -15.070312 1.65625 -15.40625 C 2.019531 -15.75 2.492188 -15.921875 3.078125 -15.921875 C 3.648438 -15.921875 4.117188 -15.757812 4.484375 -15.4375 C 4.847656 -15.113281 5.03125 -14.707031 5.03125 -14.21875 C 5.03125 -13.695312 4.847656 -13.265625 4.484375 -12.921875 C 4.117188 -12.578125 3.648438 -12.40625 3.078125 -12.40625 Z M 3.078125 -12.40625 "/></g></g></g><g fill="#6b7280" fill-opacity="1"><g transform="translate(237.141219, 19.26533)"><g><path d="M 13.71875 -2.59375 L 13.71875 2.34375 L 10.78125 2.34375 L 10.78125 0 L 3.140625 0 L 3.140625 2.34375 L 0.203125 2.34375 L 0.203125 -2.59375 L 0.640625 -2.59375 C 1.316406 -2.601562 1.78125 -3 2.03125 -3.78125 C 2.289062 -4.5625 2.457031 -5.675781 2.53125 -7.125 L 2.671875 -10.890625 L 12.15625 -10.890625 L 12.15625 -2.59375 Z M 5.375 -6.90625 C 5.34375 -5.789062 5.257812 -4.882812 5.125 -4.1875 C 5 -3.488281 4.757812 -2.957031 4.40625 -2.59375 L 9 -2.59375 L 9 -8.296875 L 5.4375 -8.296875 Z M 5.375 -6.90625 "/></g></g></g><g fill="#6b7280" fill-opacity="1"><g transform="translate(251.323157, 19.26533)"><g><path d="M 1.515625 -10.890625 L 4.65625 -10.890625 L 4.65625 -6.640625 L 9.390625 -6.640625 L 9.390625 -10.890625 L 12.546875 -10.890625 L 12.546875 0 L 9.390625 0 L 9.390625 -4.0625 L 4.65625 -4.0625 L 4.65625 0 L 1.515625 0 Z M 1.515625 -10.890625 "/></g></g></g><g fill="#6b7280" fill-opacity="1"><g transform="translate(265.36348, 19.26533)"><g><path d="M 6.625 0.15625 C 5.476562 0.15625 4.445312 -0.0820312 3.53125 -0.5625 C 2.625 -1.039062 1.910156 -1.703125 1.390625 -2.546875 C 0.878906 -3.398438 0.625 -4.363281 0.625 -5.4375 C 0.625 -6.519531 0.878906 -7.484375 1.390625 -8.328125 C 1.910156 -9.179688 2.625 -9.847656 3.53125 -10.328125 C 4.445312 -10.804688 5.476562 -11.046875 6.625 -11.046875 C 7.769531 -11.046875 8.789062 -10.804688 9.6875 -10.328125 C 10.59375 -9.847656 11.300781 -9.179688 11.8125 -8.328125 C 12.332031 -7.484375 12.59375 -6.519531 12.59375 -5.4375 C 12.59375 -4.363281 12.332031 -3.398438 11.8125 -2.546875 C 11.300781 -1.703125 10.59375 -1.039062 9.6875 -0.5625 C 8.789062 -0.0820312 7.769531 0.15625 6.625 0.15625 Z M 6.625 -2.421875 C 7.425781 -2.421875 8.085938 -2.691406 8.609375 -3.234375 C 9.128906 -3.785156 9.390625 -4.519531 9.390625 -5.4375 C 9.390625 -6.351562 9.128906 -7.082031 8.609375 -7.625 C 8.085938 -8.175781 7.425781 -8.453125 6.625 -8.453125 C 5.8125 -8.453125 5.140625 -8.175781 4.609375 -7.625 C 4.085938 -7.082031 3.828125 -6.351562 3.828125 -5.4375 C 3.828125 -4.519531 4.085938 -3.785156 4.609375 -3.234375 C 5.140625 -2.691406 5.8125 -2.421875 6.625 -2.421875 Z M 6.625 -2.421875 "/></g></g></g><g fill="#6b7280" fill-opacity="1"><g transform="translate(278.59455, 19.26533)"><g><path d="M 9.828125 -5.6875 C 11.109375 -5.25 11.75 -4.382812 11.75 -3.09375 C 11.75 -2.113281 11.378906 -1.351562 10.640625 -0.8125 C 9.898438 -0.269531 8.796875 0 7.328125 0 L 1.515625 0 L 1.515625 -10.890625 L 7.078125 -10.890625 C 8.441406 -10.890625 9.507812 -10.640625 10.28125 -10.140625 C 11.050781 -9.648438 11.4375 -8.960938 11.4375 -8.078125 C 11.4375 -7.535156 11.296875 -7.054688 11.015625 -6.640625 C 10.742188 -6.234375 10.347656 -5.914062 9.828125 -5.6875 Z M 4.40625 -6.421875 L 6.796875 -6.421875 C 7.898438 -6.421875 8.453125 -6.8125 8.453125 -7.59375 C 8.453125 -8.351562 7.898438 -8.734375 6.796875 -8.734375 L 4.40625 -8.734375 Z M 7.0625 -2.140625 C 8.21875 -2.140625 8.796875 -2.539062 8.796875 -3.34375 C 8.796875 -3.757812 8.660156 -4.0625 8.390625 -4.25 C 8.128906 -4.445312 7.707031 -4.546875 7.125 -4.546875 L 4.40625 -4.546875 L 4.40625 -2.140625 Z M 7.0625 -2.140625 "/></g></g></g><g fill="#6b7280" fill-opacity="1"><g transform="translate(291.178228, 19.26533)"><g><path d="M 11.953125 -10.890625 L 11.953125 0 L 8.796875 0 L 8.796875 -8.296875 L 5.359375 -8.296875 L 5.265625 -6.375 C 5.210938 -4.945312 5.078125 -3.757812 4.859375 -2.8125 C 4.640625 -1.863281 4.285156 -1.117188 3.796875 -0.578125 C 3.316406 -0.046875 2.644531 0.21875 1.78125 0.21875 C 1.320312 0.21875 0.773438 0.140625 0.140625 -0.015625 L 0.296875 -2.609375 C 0.515625 -2.578125 0.671875 -2.5625 0.765625 -2.5625 C 1.242188 -2.5625 1.597656 -2.734375 1.828125 -3.078125 C 2.066406 -3.429688 2.222656 -3.875 2.296875 -4.40625 C 2.378906 -4.9375 2.441406 -5.640625 2.484375 -6.515625 L 2.65625 -10.890625 Z M 11.953125 -10.890625 "/></g></g></g><g fill="#6b7280" fill-opacity="1"><g transform="translate(304.652063, 19.26533)"><g><path d="M 12.109375 -5.40625 C 12.109375 -5.363281 12.085938 -5.078125 12.046875 -4.546875 L 3.8125 -4.546875 C 3.957031 -3.878906 4.304688 -3.347656 4.859375 -2.953125 C 5.410156 -2.566406 6.097656 -2.375 6.921875 -2.375 C 7.492188 -2.375 8 -2.457031 8.4375 -2.625 C 8.875 -2.789062 9.28125 -3.054688 9.65625 -3.421875 L 11.328125 -1.59375 C 10.304688 -0.425781 8.8125 0.15625 6.84375 0.15625 C 5.613281 0.15625 4.523438 -0.0820312 3.578125 -0.5625 C 2.640625 -1.039062 1.910156 -1.703125 1.390625 -2.546875 C 0.878906 -3.398438 0.625 -4.363281 0.625 -5.4375 C 0.625 -6.507812 0.878906 -7.472656 1.390625 -8.328125 C 1.898438 -9.179688 2.59375 -9.847656 3.46875 -10.328125 C 4.351562 -10.804688 5.34375 -11.046875 6.4375 -11.046875 C 7.5 -11.046875 8.460938 -10.816406 9.328125 -10.359375 C 10.191406 -9.898438 10.867188 -9.242188 11.359375 -8.390625 C 11.859375 -7.535156 12.109375 -6.539062 12.109375 -5.40625 Z M 6.453125 -8.65625 C 5.742188 -8.65625 5.144531 -8.453125 4.65625 -8.046875 C 4.175781 -7.648438 3.878906 -7.097656 3.765625 -6.390625 L 9.125 -6.390625 C 9.019531 -7.078125 8.722656 -7.625 8.234375 -8.03125 C 7.753906 -8.445312 7.160156 -8.65625 6.453125 -8.65625 Z M 6.453125 -8.65625 "/></g></g></g><g fill="#6b7280" fill-opacity="1"><g transform="translate(317.660587, 19.26533)"><g><path d="M 1.515625 -10.890625 L 4.65625 -10.890625 L 4.65625 -6.640625 L 9.390625 -6.640625 L 9.390625 -10.890625 L 12.546875 -10.890625 L 12.546875 0 L 9.390625 0 L 9.390625 -4.0625 L 4.65625 -4.0625 L 4.65625 0 L 1.515625 0 Z M 1.515625 -10.890625 "/></g></g></g><g fill="#6b7280" fill-opacity="1"><g transform="translate(331.70091, 19.26533)"><g><path d="M 1.515625 -10.890625 L 4.65625 -10.890625 L 4.65625 -6.640625 L 9.390625 -6.640625 L 9.390625 -10.890625 L 12.546875 -10.890625 L 12.546875 0 L 9.390625 0 L 9.390625 -4.0625 L 4.65625 -4.0625 L 4.65625 0 L 1.515625 0 Z M 1.515625 -10.890625 "/></g></g></g><g fill="#6b7280" fill-opacity="1"><g transform="translate(345.741232, 19.26533)"><g><path d="M 11.1875 -10.890625 L 11.1875 0 L 8.375 0 L 8.375 -3.109375 L 6.046875 -3.109375 L 3.984375 0 L 0.625 0 L 3.109375 -3.5625 C 2.359375 -3.851562 1.785156 -4.28125 1.390625 -4.84375 C 0.992188 -5.40625 0.796875 -6.082031 0.796875 -6.875 C 0.796875 -8.15625 1.253906 -9.144531 2.171875 -9.84375 C 3.097656 -10.539062 4.367188 -10.890625 5.984375 -10.890625 Z M 6.046875 -8.3125 C 5.367188 -8.3125 4.859375 -8.191406 4.515625 -7.953125 C 4.171875 -7.710938 4 -7.320312 4 -6.78125 C 4 -6.238281 4.164062 -5.84375 4.5 -5.59375 C 4.832031 -5.34375 5.335938 -5.21875 6.015625 -5.21875 L 8.375 -5.21875 L 8.375 -8.3125 Z M 6.046875 -8.3125 "/></g></g></g><g fill="#6b7280" fill-opacity="1"><g transform="translate(358.462924, 19.26533)"><g/></g></g></g></g></g></g></g></svg>